# xmcd
#
# Track frame offsets: 
#        150
#        14012
#        31350
#        48087
#        59287
#        81950
#        95287
#        108512
#        123412
#        133912
#        153000
#        164662
#        176487
#        191475
#
# Disc length: 2798 seconds
#
# Revision: 3
# Processed by: cddbd v1.5.2PL0 Copyright (c) Steve Scherf et al.
# Submitted via: ExactAudioCopy v0.95b4
#
DISCID=b60aec0e
DTITLE=Fleetwood Mac - Albatross
DYEAR=1998
DGENRE=blues
TTITLE0=Albatross
TTITLE1=Need Your Love So Bad
TTITLE2=Doctor Brown
TTITLE3=The World Keep On Turning
TTITLE4=Love That Burns
TTITLE5=My Heart Beat Like A Hammer
TTITLE6=I Loved Another Woman
TTITLE7=Got To Move
TTITLE8=Stop Messin' Round
TTITLE9=Watch Out !
TTITLE10=The Big Boat
TTITLE11=Coming Home
TTITLE12=No Place To Go
TTITLE13=Merry Go Round
EXTD=
EXTT0=
EXTT1=
EXTT2=
EXTT3=
EXTT4=
EXTT5=
EXTT6=
EXTT7=
EXTT8=
EXTT9=
EXTT10=
EXTT11=
EXTT12=
EXTT13=
PLAYORDER=
